Coordinates
version=1
nRows=6
nColumns=63
inDegrees=yes

Units are S.I. units (second, meters, Newtons, ...)
If the header above contains a line with 'inDegrees', this indicates whether rotational values are in degrees (yes) or radians (no).

endheader
time	pelvis_tilt	pelvis_list	pelvis_rotation	pelvis_tx	pelvis_ty	pelvis_tz	hip_flexion_r	hip_adduction_r	hip_rotation_r	knee_angle_r	knee_angle_r_beta	ankle_angle_r	subtalar_angle_r	mtp_angle_r	hip_flexion_l	hip_adduction_l	hip_rotation_l	knee_angle_l	knee_angle_l_beta	ankle_angle_l	subtalar_angle_l	mtp_angle_l	L5_S1_Flex_Ext	L5_S1_Lat_Bending	L5_S1_axial_rotation	L4_L5_Flex_Ext	L4_L5_Lat_Bending	L4_L5_axial_rotation	L3_L4_Flex_Ext	L3_L4_Lat_Bending	L3_L4_axial_rotation	L2_L3_Flex_Ext	L2_L3_Lat_Bending	L2_L3_axial_rotation	L1_L2_Flex_Ext	L1_L2_Lat_Bending	L1_L2_axial_rotation	L1_T12_Flex_Ext	L1_T12_Lat_Bending	L1_T12_axial_rotation	Abs_r3	Abs_r2	Abs_r1	Abs_t1	Abs_t2	neck_flexion	neck_bending	neck_rotation	arm_flex_r	arm_add_r	arm_rot_r	elbow_flex_r	pro_sup_r	wrist_flex_r	wrist_dev_r	arm_flex_l	arm_add_l	arm_rot_l	elbow_flex_l	pro_sup_l	wrist_flex_l	wrist_dev_l
0.000000	-0.269367	-4.181016	97.277471	0.178791	0.728740	0.795632	3.459346	-1.714291	-8.132721	4.864302	0.084898	27.953809	8.599081	0.000000	4.509710	1.941752	11.175156	3.851675	0.067224	23.447864	-7.359484	0.000000	0.370270	-0.098564	-0.761078	0.687629	-0.131091	-0.808645	0.608317	-0.239649	-0.808645	0.423182	-0.239649	-0.665943	0.343833	-0.200992	-0.618376	0.211572	-0.152676	-0.570808	2.644804	-1.114979	-4.232886	0.000000	0.000000	28.161318	11.596557	4.590832	11.778780	-8.286757	51.841848	40.598778	14.868514	1.471029	8.414989	19.401253	-5.555389	69.079190	43.207882	44.919516	-3.749094	-2.815595
0.017857	-0.176446	-4.503458	95.868368	0.181679	0.728315	0.798399	4.500812	-1.519933	-7.879733	5.211291	0.090954	28.547679	10.611910	0.000000	5.071271	1.639187	8.499334	4.275826	0.074627	23.772786	-6.071429	0.000000	0.396203	-0.089912	-0.468677	0.735788	-0.119583	-0.497969	0.650921	-0.218612	-0.497969	0.452820	-0.218612	-0.410092	0.367914	-0.183349	-0.380800	0.226390	-0.139274	-0.351507	2.830036	-1.017102	-2.606639	0.000000	0.000000	28.198519	11.149064	3.752870	12.205811	-8.492168	53.906128	40.826733	11.570968	0.693550	10.455969	19.263473	-6.130793	70.099692	43.322087	45.626682	-4.158162	-4.440295
0.035714	-0.102828	-4.782769	94.676616	0.184175	0.727937	0.800723	5.385479	-1.359670	-7.674758	5.521702	0.096372	29.046052	12.301818	0.000000	5.552058	1.380493	6.189401	4.620364	0.080641	24.099120	-4.876227	0.000000	0.418471	-0.083312	-0.226742	0.777142	-0.110805	-0.240913	0.687505	-0.202565	-0.240913	0.478270	-0.202565	-0.198399	0.388592	-0.169890	-0.184228	0.239114	-0.129050	-0.170056	2.989093	-0.942441	-1.261070	0.000000	0.000000	28.230040	10.784462	3.103536	12.592869	-8.630312	55.590034	40.953485	9.991656	0.238000	12.037526	19.138062	-6.641792	70.961443	43.394746	46.347591	-4.418530	-5.731944
0.053571	-0.046706	-5.021843	93.687112	0.186303	0.727602	0.802637	6.124418	-1.230925	-7.515162	5.797247	0.101181	29.456114	13.693957	0.000000	5.957915	1.162784	4.223067	4.892504	0.085390	24.423474	-3.775632	0.000000	0.437279	-0.078501	-0.031674	0.812070	-0.104406	-0.033654	0.718405	-0.190867	-0.033654	0.499766	-0.190867	-0.027715	0.406057	-0.160079	-0.025735	0.249861	-0.121598	-0.023756	3.123439	-0.888015	-0.176162	0.000000	0.000000	28.256210	10.498723	2.629993	12.942101	-8.708551	56.926324	40.991500	9.934211	0.066675	13.198647	19.023940	-7.092440	71.672545	43.431981	47.075800	-4.545940	-6.720713
0.071429	-0.006271	-5.223578	92.884752	0.188088	0.727306	0.804172	6.728699	-1.131122	-7.398311	6.039642	0.105412	29.785050	14.813483	0.000000	6.294688	0.983176	2.578046	5.099459	0.089002	24.742458	-2.771399	0.000000	0.452832	-0.075215	0.120125	0.840955	-0.100035	0.127633	0.743958	-0.182877	0.127633	0.517542	-0.182877	0.105110	0.420500	-0.153378	0.097602	0.258748	-0.116507	0.090094	3.234536	-0.850843	0.668101	0.000000	0.000000	28.277357	10.287815	2.319409	13.255653	-8.734248	57.947758	40.953246	11.202264	0.141873	13.978323	18.920027	-7.486787	72.241100	43.439915	47.804868	-4.556130	-7.436776
0.089286	0.020285	-5.390866	92.254435	0.189552	0.727045	0.805360	7.209392	-1.057685	-7.321570	6.250600	0.109094	30.040046	15.685551	0.000000	6.568220	0.838783	1.232048	5.248443	0.091603	25.052680	-1.865282	0.000000	0.465336	-0.073190	0.232256	0.864176	-0.097343	0.246772	0.764501	-0.177955	0.246772	0.531833	-0.177955	0.203224	0.432111	-0.149250	0.188708	0.265893	-0.113372	0.174192	3.323851	-0.827943	1.291736	0.000000	0.000000	28.293813	10.147708	2.158947	13.535669	-8.714766	58.687098	40.851187	13.599444	0.425891	14.415543	18.825243	-7.828885	72.675209	43.424671	48.528351	-4.464842	-7.910305
